<svg id="svg" xmlns="http://www.w3.org/2000/svg" xmlns:xlink="http://www.w3.org/1999/xlink" width="400" height="400" viewBox="0, 0, 400,400"><g id="svgg"><path id="path0" d="M148.246 87.930 C 125.412 93.572,117.061 118.458,127.815 148.813 C 133.027 163.525,133.022 166.344,127.758 180.000 C 109.779 226.643,140.013 253.270,189.720 234.569 C 197.285 231.723,199.670 231.637,207.720 233.919 C 212.824 235.366,221.500 237.807,227.000 239.344 C 264.300 249.766,287.437 219.419,272.242 180.000 C 267.199 166.916,266.958 160.982,271.072 151.135 C 290.621 104.348,263.558 76.090,214.500 92.066 L 200.000 96.787 186.500 92.518 C 169.893 87.267,157.126 85.735,148.246 87.930 M223.178 104.824 C 266.457 124.638,279.127 180.529,247.384 211.602 C 215.601 242.713,162.568 231.082,141.551 188.391 C 115.123 134.707,168.682 79.875,223.178 104.824 M189.310 153.657 C 184.837 158.600,185.033 170.505,189.657 174.690 C 199.134 183.266,214.000 176.525,214.000 163.652 C 214.000 151.238,197.533 144.572,189.310 153.657 M246.000 269.000 C 246.000 270.833,246.968 272.011,248.150 271.617 C 249.333 271.222,250.300 270.045,250.300 269.000 C 250.300 267.955,249.333 266.778,248.150 266.383 C 246.968 265.989,246.000 267.167,246.000 269.000 M136.000 274.000 C 136.000 279.541,135.456 280.000,128.895 280.000 L 121.791 280.000 122.395 290.500 L 123.000 301.000 132.471 301.357 C 137.679 301.553,142.457 300.878,143.089 299.857 C 143.720 298.836,143.283 298.000,142.118 298.000 C 140.816 298.000,140.000 292.224,140.000 283.000 C 140.000 274.333,139.156 268.000,138.000 268.000 C 136.900 268.000,136.000 270.700,136.000 274.000 M97.085 271.862 C 95.405 274.580,95.264 292.529,96.882 297.628 C 98.341 302.226,114.000 304.396,114.000 300.000 C 114.000 298.900,110.787 298.000,106.861 298.000 C 98.059 298.000,97.399 290.160,106.000 287.781 L 111.000 286.399 105.500 286.199 C 95.632 285.842,97.441 272.509,107.500 271.457 L 115.000 270.672 106.618 270.336 C 102.008 270.151,97.718 270.838,97.085 271.862 M262.278 289.178 C 257.381 301.973,257.376 302.000,259.835 302.000 C 260.844 302.000,263.261 297.833,265.206 292.740 L 268.742 283.480 272.342 287.926 C 275.015 291.227,275.434 293.320,273.971 296.054 C 271.123 301.377,271.440 302.000,277.000 302.000 C 279.750 302.000,282.000 301.100,282.000 300.000 C 282.000 298.900,280.540 298.000,278.755 298.000 C 276.111 298.000,275.967 297.450,277.977 295.028 C 279.996 292.594,279.407 290.810,274.722 285.173 C 267.240 276.171,267.257 276.166,262.278 289.178 M150.804 282.790 C 147.421 291.605,150.879 301.000,157.500 300.981 C 162.921 300.965,164.000 301.711,164.000 305.481 C 164.000 308.621,162.815 310.000,160.118 310.000 C 157.983 310.000,155.640 310.964,154.912 312.142 C 154.046 313.544,155.906 314.062,160.294 313.642 C 165.708 313.124,167.135 312.037,167.702 308.000 C 168.088 305.250,169.438 302.256,170.702 301.348 C 172.406 300.123,172.354 299.433,170.500 298.681 C 169.030 298.085,168.000 294.026,168.000 288.833 L 168.000 280.000 159.937 280.000 C 154.885 280.000,151.475 281.042,150.804 282.790 M178.804 282.790 C 173.852 295.695,187.677 309.123,196.664 300.136 C 198.179 298.621,196.358 298.000,190.400 298.000 C 184.267 298.000,182.000 297.190,182.000 295.000 C 182.000 292.915,184.098 292.000,188.882 292.000 C 196.629 292.000,198.844 289.811,196.994 283.982 C 195.452 279.122,180.586 278.147,178.804 282.790 M206.395 290.500 L 207.000 301.000 221.000 301.000 L 235.000 301.000 235.638 292.033 C 235.989 287.101,237.339 282.390,238.638 281.563 C 240.095 280.637,239.277 280.050,236.500 280.031 C 232.495 280.003,232.000 280.991,232.000 289.000 C 232.000 296.667,231.407 298.000,228.000 298.000 C 224.593 298.000,224.000 296.667,224.000 289.000 C 224.000 284.050,223.100 280.000,222.000 280.000 C 220.900 280.000,220.000 284.050,220.000 289.000 C 220.000 297.267,219.593 298.000,215.000 298.000 C 210.407 298.000,210.000 297.267,210.000 289.000 C 210.000 284.035,209.056 280.000,207.895 280.000 C 206.613 280.000,206.027 284.103,206.395 290.500 M246.000 290.063 C 246.000 299.785,249.719 305.134,253.586 300.973 C 254.364 300.137,253.875 299.051,252.500 298.560 C 251.012 298.028,250.000 294.090,250.000 288.833 C 250.000 283.975,249.100 280.000,248.000 280.000 C 246.900 280.000,246.000 284.528,246.000 290.063 M288.804 282.790 C 283.852 295.695,297.677 309.123,306.664 300.136 C 308.179 298.621,306.358 298.000,300.400 298.000 C 294.267 298.000,292.000 297.190,292.000 295.000 C 292.000 292.905,294.111 292.000,299.000 292.000 C 305.444 292.000,306.000 291.524,306.000 286.000 C 306.000 279.298,291.204 276.536,288.804 282.790 M136.000 290.000 C 136.000 297.200,135.500 298.000,131.000 298.000 C 126.500 298.000,126.000 297.200,126.000 290.000 C 126.000 282.800,126.500 282.000,131.000 282.000 C 135.500 282.000,136.000 282.800,136.000 290.000 M164.000 290.000 C 164.000 297.200,163.500 298.000,159.000 298.000 C 154.500 298.000,154.000 297.200,154.000 290.000 C 154.000 282.800,154.500 282.000,159.000 282.000 C 163.500 282.000,164.000 282.800,164.000 290.000 M193.630 285.500 C 192.602 290.919,182.000 291.496,182.000 286.133 C 182.000 282.852,183.267 282.000,188.147 282.000 C 192.920 282.000,194.145 282.782,193.630 285.500 M302.000 286.000 C 302.000 288.933,300.667 290.000,297.000 290.000 C 293.333 290.000,292.000 288.933,292.000 286.000 C 292.000 283.067,293.333 282.000,297.000 282.000 C 300.667 282.000,302.000 283.067,302.000 286.000 " stroke="none" fill="#000000" fill-rule="evenodd"></path></g></svg>